<svg width="851" height="238" viewBox="0 0 851 238" fill="none" xmlns="http://www.w3.org/2000/svg">
<path d="M183.287 149.999H164.395L188.933 77.2722H212.335L236.873 149.999H217.981L200.9 95.5961H200.332L183.287 149.999ZM180.765 121.377H220.254V134.73H180.765V121.377Z" fill="white"/>
<path d="M257.782 77.2722V149.999H240.203V77.2722H257.782Z" fill="white"/>
<path d="M281.301 149.999V77.2722H332.011V91.5478H298.879V106.463H329.419V120.774H298.879V135.724H332.011V149.999H281.301Z" fill="white"/>
<path d="M355.885 118.892V149.999H338.52V95.454H355.033V105.468H355.636C356.844 102.13 358.903 99.5142 361.815 97.6202C364.727 95.7026 368.196 94.7438 372.22 94.7438C376.055 94.7438 379.382 95.6079 382.199 97.3361C385.04 99.0407 387.241 101.432 388.804 104.509C390.39 107.563 391.171 111.138 391.148 115.234V149.999H373.783V118.643C373.806 115.613 373.037 113.245 371.474 111.541C369.936 109.836 367.793 108.984 365.047 108.984C363.224 108.984 361.614 109.386 360.217 110.191C358.844 110.972 357.779 112.097 357.021 113.565C356.287 115.033 355.909 116.808 355.885 118.892Z" fill="white"/>
<path d="M422.825 171.59C417.64 171.59 413.201 170.868 409.508 169.424C405.815 167.98 402.915 166.003 400.808 163.494C398.701 160.984 397.434 158.143 397.008 154.971L413.45 154.048C413.758 155.16 414.326 156.131 415.154 156.96C416.007 157.788 417.108 158.428 418.457 158.877C419.83 159.327 421.44 159.552 423.287 159.552C426.199 159.552 428.601 158.842 430.495 157.421C432.413 156.025 433.372 153.574 433.372 150.07V140.482H432.768C432.082 142.163 431.04 143.667 429.643 144.992C428.246 146.318 426.506 147.36 424.423 148.117C422.363 148.875 419.996 149.254 417.321 149.254C413.343 149.254 409.698 148.33 406.383 146.484C403.092 144.614 400.453 141.725 398.464 137.819C396.499 133.889 395.517 128.835 395.517 122.656C395.517 116.287 396.535 111.044 398.571 106.924C400.607 102.781 403.27 99.7154 406.561 97.7267C409.875 95.7381 413.438 94.7438 417.25 94.7438C420.114 94.7438 422.565 95.2409 424.6 96.2353C426.66 97.2059 428.353 98.4606 429.679 99.9995C431.004 101.538 432.011 103.136 432.697 104.794H433.194V95.454H450.488V150.213C450.488 154.829 449.328 158.723 447.008 161.896C444.688 165.068 441.445 167.471 437.278 169.105C433.111 170.762 428.294 171.59 422.825 171.59ZM423.358 136.612C425.465 136.612 427.264 136.055 428.755 134.943C430.247 133.83 431.395 132.232 432.2 130.149C433.005 128.065 433.407 125.568 433.407 122.656C433.407 119.696 433.005 117.151 432.2 115.021C431.419 112.866 430.27 111.209 428.755 110.049C427.264 108.889 425.465 108.309 423.358 108.309C421.203 108.309 419.38 108.901 417.889 110.085C416.397 111.268 415.261 112.937 414.48 115.092C413.722 117.222 413.343 119.744 413.343 122.656C413.343 125.568 413.734 128.065 414.515 130.149C415.297 132.232 416.421 133.83 417.889 134.943C419.38 136.055 421.203 136.612 423.358 136.612Z" fill="white"/>
<path d="M457.059 149.999V95.454H474.424V149.999H457.059ZM465.759 89.0975C463.321 89.0975 461.226 88.2926 459.474 86.6827C457.722 85.0492 456.846 83.0842 456.846 80.7878C456.846 78.5151 457.722 76.5738 459.474 74.964C461.226 73.3304 463.321 72.5137 465.759 72.5137C468.221 72.5137 470.317 73.3304 472.045 74.964C473.797 76.5738 474.673 78.5151 474.673 80.7878C474.673 83.0842 473.797 85.0492 472.045 86.6827C470.317 88.2926 468.221 89.0975 465.759 89.0975Z" fill="white"/>
<path d="M498.342 118.892V149.999H480.977V95.454H497.49V105.468H498.093C499.301 102.13 501.36 99.5142 504.272 97.6202C507.184 95.7026 510.653 94.7438 514.677 94.7438C518.512 94.7438 521.839 95.6079 524.656 97.3361C527.497 99.0407 529.699 101.432 531.261 104.509C532.847 107.563 533.628 111.138 533.605 115.234V149.999H516.24V118.643C516.263 115.613 515.494 113.245 513.931 111.541C512.393 109.836 510.25 108.984 507.504 108.984C505.681 108.984 504.071 109.386 502.674 110.191C501.301 110.972 500.236 112.097 499.478 113.565C498.744 115.033 498.366 116.808 498.342 118.892Z" fill="white"/>
<path d="M565.353 151.029C559.648 151.029 554.723 149.905 550.58 147.656C546.461 145.383 543.289 142.151 541.063 137.961C538.861 133.747 537.761 128.74 537.761 122.94C537.761 117.305 538.873 112.381 541.099 108.167C543.324 103.929 546.461 100.639 550.509 98.2949C554.558 95.9275 559.328 94.7438 564.82 94.7438C568.703 94.7438 572.254 95.3475 575.474 96.5549C578.693 97.7623 581.475 99.5497 583.819 101.917C586.163 104.285 587.986 107.208 589.288 110.688C590.59 114.145 591.241 118.11 591.241 122.585V126.917H543.833V116.832H575.083C575.059 114.985 574.621 113.34 573.769 111.896C572.917 110.452 571.745 109.327 570.254 108.522C568.786 107.694 567.093 107.279 565.175 107.279C563.234 107.279 561.494 107.717 559.955 108.593C558.416 109.445 557.197 110.617 556.298 112.109C555.398 113.577 554.924 115.246 554.877 117.116V127.379C554.877 129.604 555.315 131.557 556.191 133.238C557.067 134.895 558.31 136.186 559.92 137.109C561.53 138.032 563.447 138.494 565.673 138.494C567.211 138.494 568.608 138.281 569.863 137.855C571.118 137.428 572.195 136.801 573.094 135.972C573.994 135.144 574.669 134.126 575.119 132.919L591.063 133.38C590.4 136.955 588.944 140.068 586.695 142.72C584.47 145.347 581.546 147.395 577.924 148.863C574.302 150.307 570.112 151.029 565.353 151.029Z" fill="white"/>
<path d="M621.107 151.029C615.401 151.029 610.477 149.905 606.334 147.656C602.215 145.383 599.042 142.151 596.817 137.961C594.615 133.747 593.515 128.74 593.515 122.94C593.515 117.305 594.627 112.381 596.853 108.167C599.078 103.929 602.215 100.639 606.263 98.2949C610.311 95.9275 615.082 94.7438 620.574 94.7438C624.457 94.7438 628.008 95.3475 631.228 96.5549C634.447 97.7623 637.229 99.5497 639.573 101.917C641.917 104.285 643.739 107.208 645.042 110.688C646.344 114.145 646.995 118.11 646.995 122.585V126.917H599.587V116.832H630.837C630.813 114.985 630.375 113.34 629.523 111.896C628.671 110.452 627.499 109.327 626.007 108.522C624.54 107.694 622.847 107.279 620.929 107.279C618.988 107.279 617.248 107.717 615.709 108.593C614.17 109.445 612.951 110.617 612.051 112.109C611.152 113.577 610.678 115.246 610.631 117.116V127.379C610.631 129.604 611.069 131.557 611.945 133.238C612.821 134.895 614.064 136.186 615.674 137.109C617.283 138.032 619.201 138.494 621.426 138.494C622.965 138.494 624.362 138.281 625.617 137.855C626.872 137.428 627.949 136.801 628.848 135.972C629.748 135.144 630.423 134.126 630.873 132.919L646.817 133.38C646.154 136.955 644.698 140.068 642.449 142.72C640.224 145.347 637.3 147.395 633.678 148.863C630.056 150.307 625.865 151.029 621.107 151.029Z" fill="white"/>
<path d="M651.364 149.999V95.454H668.232V105.397H668.8C669.794 101.799 671.416 99.1235 673.665 97.3716C675.914 95.5961 678.53 94.7083 681.513 94.7083C682.318 94.7083 683.146 94.7675 683.999 94.8858C684.851 94.9805 685.644 95.1344 686.378 95.3475V110.44C685.549 110.156 684.46 109.931 683.111 109.765C681.785 109.599 680.601 109.517 679.56 109.517C677.5 109.517 675.642 109.978 673.984 110.901C672.351 111.801 671.061 113.068 670.114 114.701C669.19 116.311 668.729 118.205 668.729 120.383V149.999H651.364Z" fill="white"/>
<path fill-rule="evenodd" clip-rule="evenodd" d="M20 20H831V207H560V227H831H851V207V20V0H831H20H0V20V207V227H20H292V207H20V20Z" fill="white"/>
<path d="M351.18 201.739C349.62 199.859 347.66 198.919 345.3 198.919C344.62 198.919 343.96 199.039 343.32 199.279C342.68 199.479 342.1 199.819 341.58 200.299C341.06 200.779 340.64 201.399 340.32 202.159C340.04 202.919 339.9 203.819 339.9 204.859C339.9 206.659 340.44 208.059 341.52 209.059C342.6 210.019 344.02 210.939 345.78 211.819C346.82 212.339 347.88 212.939 348.96 213.619C350.04 214.299 351.02 215.119 351.9 216.079C352.78 217.039 353.5 218.179 354.06 219.499C354.62 220.819 354.9 222.379 354.9 224.179C354.9 226.259 354.56 228.099 353.88 229.699C353.24 231.299 352.36 232.659 351.24 233.779C350.16 234.859 348.88 235.679 347.4 236.239C345.92 236.799 344.36 237.079 342.72 237.079C340.36 237.079 338.18 236.619 336.18 235.699C334.18 234.779 332.58 233.619 331.38 232.219L335.28 226.939C336.2 228.059 337.3 228.939 338.58 229.579C339.9 230.219 341.24 230.539 342.6 230.539C344.12 230.539 345.38 230.019 346.38 228.979C347.38 227.939 347.88 226.479 347.88 224.599C347.88 222.759 347.28 221.299 346.08 220.219C344.88 219.139 343.36 218.139 341.52 217.219C340.36 216.659 339.26 216.039 338.22 215.359C337.22 214.679 336.32 213.879 335.52 212.959C334.76 211.999 334.14 210.899 333.66 209.659C333.22 208.379 333 206.859 333 205.099C333 202.899 333.34 201.019 334.02 199.459C334.74 197.859 335.66 196.539 336.78 195.499C337.94 194.459 339.24 193.699 340.68 193.219C342.12 192.699 343.58 192.439 345.06 192.439C347.22 192.439 349.14 192.799 350.82 193.519C352.54 194.199 353.98 195.219 355.14 196.579L351.18 201.739Z" fill="white"/>
<path d="M387.793 220.939C387.793 223.179 387.553 225.279 387.073 227.239C386.593 229.199 385.813 230.919 384.733 232.399C383.653 233.839 382.253 234.979 380.533 235.819C378.853 236.659 376.793 237.079 374.353 237.079C371.913 237.079 369.853 236.659 368.173 235.819C366.493 234.979 365.113 233.839 364.033 232.399C362.993 230.919 362.233 229.199 361.753 227.239C361.313 225.279 361.093 223.179 361.093 220.939V193.519H368.293V220.279C368.293 221.599 368.373 222.879 368.533 224.119C368.733 225.319 369.053 226.379 369.493 227.299C369.973 228.219 370.613 228.959 371.413 229.519C372.213 230.039 373.233 230.299 374.473 230.299C375.713 230.299 376.733 230.039 377.533 229.519C378.333 228.959 378.953 228.219 379.393 227.299C379.873 226.379 380.193 225.319 380.353 224.119C380.553 222.879 380.653 221.599 380.653 220.279V193.519H387.793V220.939Z" fill="white"/>
<path d="M425.256 235.999L425.376 203.359H425.196L416.676 235.999H411.036L402.696 203.359H402.516L402.636 235.999H396.096V193.519H405.756L413.916 224.599H414.156L422.136 193.519H432.276V235.999H425.256Z" fill="white"/>
<path d="M470.322 235.999L470.442 203.359H470.262L461.742 235.999H456.102L447.762 203.359H447.582L447.702 235.999H441.162V193.519H450.822L458.982 224.599H459.222L467.202 193.519H477.342V235.999H470.322Z" fill="white"/>
<path d="M486.227 235.999V193.519H493.427V235.999H486.227Z" fill="white"/>
<path d="M512.968 199.639V235.999H505.888V199.639H497.908V193.519H520.948V199.639H512.968Z" fill="white"/>
</svg>
