<svg width="851" height="238" viewBox="0 0 851 238" fill="none" xmlns="http://www.w3.org/2000/svg">
<path d="M183.287 150H164.395L188.933 77.2732H212.335L236.873 150H217.981L200.9 95.597H200.332L183.287 150ZM180.765 121.378H220.254V134.731H180.765V121.378Z" fill="black"/>
<path d="M257.782 77.2732V150H240.203V77.2732H257.782Z" fill="black"/>
<path d="M281.301 150V77.2732H332.011V91.5487H298.879V106.464H329.419V120.775H298.879V135.725H332.011V150H281.301Z" fill="black"/>
<path d="M355.885 118.892V150H338.52V95.455H355.033V105.469H355.636C356.844 102.131 358.903 99.5151 361.815 97.6212C364.727 95.7036 368.196 94.7448 372.22 94.7448C376.055 94.7448 379.382 95.6089 382.199 97.3371C385.04 99.0416 387.241 101.433 388.804 104.51C390.39 107.564 391.171 111.139 391.148 115.235V150H373.783V118.644C373.806 115.614 373.037 113.246 371.474 111.542C369.936 109.837 367.793 108.985 365.047 108.985C363.224 108.985 361.614 109.387 360.217 110.192C358.844 110.973 357.779 112.098 357.021 113.566C356.287 115.034 355.909 116.809 355.885 118.892Z" fill="black"/>
<path d="M422.825 171.591C417.64 171.591 413.201 170.869 409.508 169.425C405.815 167.981 402.915 166.004 400.808 163.495C398.701 160.985 397.434 158.144 397.008 154.972L413.45 154.049C413.758 155.161 414.326 156.132 415.154 156.961C416.007 157.789 417.108 158.428 418.457 158.878C419.83 159.328 421.44 159.553 423.287 159.553C426.199 159.553 428.601 158.843 430.495 157.422C432.413 156.026 433.372 153.575 433.372 150.071V140.483H432.768C432.082 142.164 431.04 143.668 429.643 144.993C428.246 146.319 426.506 147.361 424.423 148.118C422.363 148.876 419.996 149.255 417.321 149.255C413.343 149.255 409.698 148.331 406.383 146.485C403.092 144.615 400.453 141.726 398.464 137.82C396.499 133.89 395.517 128.836 395.517 122.657C395.517 116.288 396.535 111.044 398.571 106.925C400.607 102.782 403.27 99.7164 406.561 97.7277C409.875 95.7391 413.438 94.7448 417.25 94.7448C420.114 94.7448 422.565 95.2419 424.6 96.2362C426.66 97.2069 428.353 98.4616 429.679 100C431.004 101.539 432.011 103.137 432.697 104.794H433.194V95.455H450.488V150.214C450.488 154.83 449.328 158.724 447.008 161.897C444.688 165.069 441.445 167.472 437.278 169.106C433.111 170.763 428.294 171.591 422.825 171.591ZM423.358 136.613C425.465 136.613 427.264 136.056 428.755 134.944C430.247 133.831 431.395 132.233 432.2 130.15C433.005 128.066 433.407 125.569 433.407 122.657C433.407 119.697 433.005 117.152 432.2 115.022C431.419 112.867 430.27 111.21 428.755 110.05C427.264 108.89 425.465 108.31 423.358 108.31C421.203 108.31 419.38 108.902 417.889 110.086C416.397 111.269 415.261 112.938 414.48 115.093C413.722 117.223 413.343 119.745 413.343 122.657C413.343 125.569 413.734 128.066 414.515 130.15C415.297 132.233 416.421 133.831 417.889 134.944C419.38 136.056 421.203 136.613 423.358 136.613Z" fill="black"/>
<path d="M457.059 150V95.455H474.424V150H457.059ZM465.759 89.0985C463.321 89.0985 461.226 88.2935 459.474 86.6837C457.722 85.0502 456.846 83.0852 456.846 80.7888C456.846 78.5161 457.722 76.5748 459.474 74.9649C461.226 73.3314 463.321 72.5146 465.759 72.5146C468.221 72.5146 470.317 73.3314 472.045 74.9649C473.797 76.5748 474.673 78.5161 474.673 80.7888C474.673 83.0852 473.797 85.0502 472.045 86.6837C470.317 88.2935 468.221 89.0985 465.759 89.0985Z" fill="black"/>
<path d="M498.342 118.892V150H480.977V95.455H497.49V105.469H498.093C499.301 102.131 501.36 99.5151 504.272 97.6212C507.184 95.7036 510.653 94.7448 514.677 94.7448C518.512 94.7448 521.839 95.6089 524.656 97.3371C527.497 99.0416 529.699 101.433 531.261 104.51C532.847 107.564 533.628 111.139 533.605 115.235V150H516.24V118.644C516.263 115.614 515.494 113.246 513.931 111.542C512.393 109.837 510.25 108.985 507.504 108.985C505.681 108.985 504.071 109.387 502.674 110.192C501.301 110.973 500.236 112.098 499.478 113.566C498.744 115.034 498.366 116.809 498.342 118.892Z" fill="black"/>
<path d="M565.353 151.03C559.648 151.03 554.723 149.906 550.58 147.657C546.461 145.384 543.289 142.152 541.063 137.962C538.861 133.748 537.761 128.741 537.761 122.941C537.761 117.306 538.873 112.382 541.099 108.168C543.324 103.93 546.461 100.64 550.509 98.2959C554.558 95.9285 559.328 94.7448 564.82 94.7448C568.703 94.7448 572.254 95.3485 575.474 96.5558C578.693 97.7632 581.475 99.5506 583.819 101.918C586.163 104.285 587.986 107.209 589.288 110.689C590.59 114.146 591.241 118.111 591.241 122.586V126.918H543.833V116.833H575.083C575.059 114.986 574.621 113.341 573.769 111.897C572.917 110.453 571.745 109.328 570.254 108.523C568.786 107.695 567.093 107.28 565.175 107.28C563.234 107.28 561.494 107.718 559.955 108.594C558.416 109.446 557.197 110.618 556.298 112.11C555.398 113.578 554.924 115.247 554.877 117.117V127.38C554.877 129.605 555.315 131.558 556.191 133.239C557.067 134.896 558.31 136.187 559.92 137.11C561.53 138.033 563.447 138.495 565.673 138.495C567.211 138.495 568.608 138.282 569.863 137.856C571.118 137.429 572.195 136.802 573.094 135.973C573.994 135.145 574.669 134.127 575.119 132.919L591.063 133.381C590.4 136.956 588.944 140.069 586.695 142.721C584.47 145.348 581.546 147.396 577.924 148.864C574.302 150.308 570.112 151.03 565.353 151.03Z" fill="black"/>
<path d="M621.107 151.03C615.401 151.03 610.477 149.906 606.334 147.657C602.215 145.384 599.042 142.152 596.817 137.962C594.615 133.748 593.515 128.741 593.515 122.941C593.515 117.306 594.627 112.382 596.853 108.168C599.078 103.93 602.215 100.64 606.263 98.2959C610.311 95.9285 615.082 94.7448 620.574 94.7448C624.457 94.7448 628.008 95.3485 631.228 96.5558C634.447 97.7632 637.229 99.5506 639.573 101.918C641.917 104.285 643.739 107.209 645.042 110.689C646.344 114.146 646.995 118.111 646.995 122.586V126.918H599.587V116.833H630.837C630.813 114.986 630.375 113.341 629.523 111.897C628.671 110.453 627.499 109.328 626.007 108.523C624.54 107.695 622.847 107.28 620.929 107.28C618.988 107.28 617.248 107.718 615.709 108.594C614.17 109.446 612.951 110.618 612.051 112.11C611.152 113.578 610.678 115.247 610.631 117.117V127.38C610.631 129.605 611.069 131.558 611.945 133.239C612.821 134.896 614.064 136.187 615.674 137.11C617.283 138.033 619.201 138.495 621.426 138.495C622.965 138.495 624.362 138.282 625.617 137.856C626.872 137.429 627.949 136.802 628.848 135.973C629.748 135.145 630.423 134.127 630.873 132.919L646.817 133.381C646.154 136.956 644.698 140.069 642.449 142.721C640.224 145.348 637.3 147.396 633.678 148.864C630.056 150.308 625.865 151.03 621.107 151.03Z" fill="black"/>
<path d="M651.364 150V95.455H668.232V105.398H668.8C669.794 101.8 671.416 99.1245 673.665 97.3726C675.914 95.597 678.53 94.7093 681.513 94.7093C682.318 94.7093 683.146 94.7684 683.999 94.8868C684.851 94.9815 685.644 95.1354 686.378 95.3485V110.441C685.549 110.157 684.46 109.932 683.111 109.766C681.785 109.6 680.601 109.517 679.56 109.517C677.5 109.517 675.642 109.979 673.984 110.902C672.351 111.802 671.061 113.069 670.114 114.702C669.19 116.312 668.729 118.206 668.729 120.384V150H651.364Z" fill="black"/>
<path fill-rule="evenodd" clip-rule="evenodd" d="M20 20H831V207H560V227H831H851V207V20V0H831H20H0V20V207V227H20H292V207H20V20Z" fill="black"/>
<path d="M351.18 201.74C349.62 199.86 347.66 198.92 345.3 198.92C344.62 198.92 343.96 199.04 343.32 199.28C342.68 199.48 342.1 199.82 341.58 200.3C341.06 200.78 340.64 201.4 340.32 202.16C340.04 202.92 339.9 203.82 339.9 204.86C339.9 206.66 340.44 208.06 341.52 209.06C342.6 210.02 344.02 210.94 345.78 211.82C346.82 212.34 347.88 212.94 348.96 213.62C350.04 214.3 351.02 215.12 351.9 216.08C352.78 217.04 353.5 218.18 354.06 219.5C354.62 220.82 354.9 222.38 354.9 224.18C354.9 226.26 354.56 228.1 353.88 229.7C353.24 231.3 352.36 232.66 351.24 233.78C350.16 234.86 348.88 235.68 347.4 236.24C345.92 236.8 344.36 237.08 342.72 237.08C340.36 237.08 338.18 236.62 336.18 235.7C334.18 234.78 332.58 233.62 331.38 232.22L335.28 226.94C336.2 228.06 337.3 228.94 338.58 229.58C339.9 230.22 341.24 230.54 342.6 230.54C344.12 230.54 345.38 230.02 346.38 228.98C347.38 227.94 347.88 226.48 347.88 224.6C347.88 222.76 347.28 221.3 346.08 220.22C344.88 219.14 343.36 218.14 341.52 217.22C340.36 216.66 339.26 216.04 338.22 215.36C337.22 214.68 336.32 213.88 335.52 212.96C334.76 212 334.14 210.9 333.66 209.66C333.22 208.38 333 206.86 333 205.1C333 202.9 333.34 201.02 334.02 199.46C334.74 197.86 335.66 196.54 336.78 195.5C337.94 194.46 339.24 193.7 340.68 193.22C342.12 192.7 343.58 192.44 345.06 192.44C347.22 192.44 349.14 192.8 350.82 193.52C352.54 194.2 353.98 195.22 355.14 196.58L351.18 201.74Z" fill="black"/>
<path d="M387.793 220.94C387.793 223.18 387.553 225.28 387.073 227.24C386.593 229.2 385.813 230.92 384.733 232.4C383.653 233.84 382.253 234.98 380.533 235.82C378.853 236.66 376.793 237.08 374.353 237.08C371.913 237.08 369.853 236.66 368.173 235.82C366.493 234.98 365.113 233.84 364.033 232.4C362.993 230.92 362.233 229.2 361.753 227.24C361.313 225.28 361.093 223.18 361.093 220.94V193.52H368.293V220.28C368.293 221.6 368.373 222.88 368.533 224.12C368.733 225.32 369.053 226.38 369.493 227.3C369.973 228.22 370.613 228.96 371.413 229.52C372.213 230.04 373.233 230.3 374.473 230.3C375.713 230.3 376.733 230.04 377.533 229.52C378.333 228.96 378.953 228.22 379.393 227.3C379.873 226.38 380.193 225.32 380.353 224.12C380.553 222.88 380.653 221.6 380.653 220.28V193.52H387.793V220.94Z" fill="black"/>
<path d="M425.256 236L425.376 203.36H425.196L416.676 236H411.036L402.696 203.36H402.516L402.636 236H396.096V193.52H405.756L413.916 224.6H414.156L422.136 193.52H432.276V236H425.256Z" fill="black"/>
<path d="M470.321 236L470.441 203.36H470.261L461.741 236H456.101L447.761 203.36H447.581L447.701 236H441.161V193.52H450.821L458.981 224.6H459.221L467.201 193.52H477.341V236H470.321Z" fill="black"/>
<path d="M486.227 236V193.52H493.427V236H486.227Z" fill="black"/>
<path d="M512.967 199.64V236H505.887V199.64H497.907V193.52H520.947V199.64H512.967Z" fill="black"/>
</svg>
